<?xml version="1.0" encoding="utf-8"?>
<!-- Generator: Adobe Illustrator 24.0.2, SVG Export Plug-In . SVG Version: 6.00 Build 0)  -->
<svg version="1.1" id="Layer_1" xmlns="http://www.w3.org/2000/svg" xmlns:xlink="http://www.w3.org/1999/xlink" x="0px" y="0px"
	 viewBox="0 0 600 600" style="enable-background:new 0 0 600 600;" xml:space="preserve">
<g id="Capa_1">
	<g>
		<rect x="-588.4" y="484.2" width="92.1" height="53.9"/>
		<rect x="-242.3" y="484.2" width="92.1" height="53.9"/>
		<rect x="-246" y="443.5" width="53.7" height="34.2"/>
		<rect x="-546.4" y="443.5" width="53.7" height="34.2"/>
		<rect x="-588.4" y="383.1" width="92.1" height="53.9"/>
		<rect x="-588.4" y="282.1" width="92.1" height="53.9"/>
		<rect x="-242.3" y="383.1" width="92.1" height="53.9"/>
		<rect x="-242.3" y="282.1" width="92.1" height="53.9"/>
		<path d="M-244.8,246.9l95.2-22.6l-28.7-82.4l-97.3,45.3C-260.3,203.6-249.5,224.2-244.8,246.9z"/>
		<path d="M-463.1,187.1l-97.3-45.3l-28.7,82.4l95.2,22.6C-489.1,224.2-478.3,203.6-463.1,187.1z"/>
		<path d="M-281.5,61.9h-175.6l27.7,98.9c17.9-9.6,38.4-15.1,60.1-15.1s42.2,5.5,60.1,15.1L-281.5,61.9z"/>
		<path d="M-246,275.6h53.7V241l-55.1,13.2c0.9,6.1,1.4,12.4,1.4,18.7V275.6z"/>
		<rect x="-546.4" y="342.5" width="53.7" height="34.2"/>
		<rect x="-246" y="342.5" width="53.7" height="34.2"/>
		<path d="M-434.1,168l-23.8-85.1l-50.5,6l-24.4,58.6l78.2,36.4C-448.4,177.9-441.5,172.6-434.1,168z"/>
		<path d="M-284,183.9l77.3-36l-26.3-59l-47.8-5.5l-23.7,84.6C-297.1,172.6-290.2,177.9-284,183.9z"/>
		<path d="M-546.4,275.6h53.7v-2.7c0-6.4,0.5-12.6,1.4-18.7l-55.1-13.2V275.6z"/>
		<g>
			<path d="M-313.6,170.2v367.9h38.5V203.8C-285.2,190-298.4,178.4-313.6,170.2z"/>
			<path d="M-263.6,538.1h11.2V272.9c0-17.8-4-34.7-11.1-49.8v315H-263.6z"/>
			<path d="M-463.6,203.8v334.3h38.5V170.2C-440.2,178.4-453.4,190-463.6,203.8z"/>
			<path d="M-486.2,538.1h11.1v-315c-7.1,15.1-11.1,32-11.1,49.8C-486.2,272.9-486.2,538.1-486.2,538.1z"/>
			<path d="M-369.3,156.2c-15.7,0.7-30.5,3.6-44.3,8.5v373.4h88.5V164.7C-338.9,159.8-353.7,156.8-369.3,156.2z M-354.4,366.4v40.1
				h-29.9v-40.1c-10-5.4-16.6-15.7-16.6-27.8c0-17.5,14.2-31.7,31.7-31.7s31.4,14.2,31.4,31.7C-337.8,350.7-344.4,361.2-354.4,366.4
				z"/>
		</g>
	</g>
</g>
<g id="Layer_2_1_">
	<rect x="80.9" y="484.2" width="92.1" height="53.9"/>
	<rect x="427" y="484.2" width="92.1" height="53.9"/>
	<rect x="423.3" y="443.5" width="53.7" height="34.2"/>
	<rect x="122.9" y="443.5" width="53.7" height="34.2"/>
	<rect x="80.9" y="383.1" width="92.1" height="53.9"/>
	<rect x="80.9" y="282.1" width="92.1" height="53.9"/>
	<rect x="427" y="383.1" width="92.1" height="53.9"/>
	<rect x="427" y="282.1" width="92.1" height="53.9"/>
	<path d="M424.5,246.9l95.2-22.6L491,141.9l-97.3,45.3C409,203.6,419.8,224.2,424.5,246.9z"/>
	<path d="M206.2,187.1l-97.3-45.3l-28.7,82.4l95.2,22.6C180.2,224.2,191,203.6,206.2,187.1z"/>
	<path d="M387.8,61.9H212.2l27.7,98.9c17.9-9.6,38.4-15.1,60.1-15.1s42.2,5.5,60.1,15.1L387.8,61.9z"/>
	<path d="M423.3,275.6H477V241l-55.1,13.2c0.9,6.1,1.4,12.4,1.4,18.7V275.6z"/>
	<rect x="122.9" y="342.5" width="53.7" height="34.2"/>
	<rect x="423.3" y="342.5" width="53.7" height="34.2"/>
	<path d="M235.2,168l-23.8-85.1l-50.5,6l-24.4,58.6l78.2,36.4C220.9,177.9,227.8,172.6,235.2,168z"/>
	<path d="M385.3,183.9l77.3-36l-26.3-59l-47.8-5.5L364.8,168C372.2,172.6,379.1,177.9,385.3,183.9z"/>
	<path d="M122.9,275.6h53.7v-2.7c0-6.4,0.5-12.6,1.4-18.7L122.9,241V275.6z"/>
	<g>
		<path d="M371.9,179.9v347.3l28.3,6.4V218C392.8,203.3,383.1,190.2,371.9,179.9z"/>
		<path d="M408.7,535.6l8.2,1.9V287.1c0-16.8-2.9-33.4-8.2-48.9L408.7,535.6L408.7,535.6z"/>
		<path d="M261.6,186.7v315.6l28.3,6.4V161.4C278.8,166.6,269.1,175.3,261.6,186.7z"/>
		<path d="M245,498.5l8.2,1.8V203c-5.2,13.1-8.2,28.4-8.2,45.2C245,248.1,245,498.5,245,498.5z"/>
		<path d="M330.9,157.4c-11.5-1.9-22.4-1.7-32.6,0.7v352.5l65.1,14.7V172.8C353.3,165.9,342.4,160.6,330.9,157.4z M341.9,358.3v37.9
			l-22-5v-37.9c-7.3-6.8-12.2-17.6-12.2-29c0-16.5,10.4-27.6,23.3-24.6c12.9,2.9,23.1,18.6,23.1,35.1
			C354.1,346.3,349.2,355.1,341.9,358.3z"/>
	</g>
</g>
</svg>
