<?xml version="1.0" encoding="utf-8"?>
<!-- Generator: Adobe Illustrator 24.0.2, SVG Export Plug-In . SVG Version: 6.00 Build 0)  -->
<svg version="1.1" id="Layer_1" focusable="false" xmlns="http://www.w3.org/2000/svg" xmlns:xlink="http://www.w3.org/1999/xlink"
	 x="0px" y="0px" viewBox="0 0 640 640" style="enable-background:new 0 0 640 640;" xml:space="preserve">
<path d="M544,256h-16L419.2,120c-12.1-15.2-30.5-24-50-24H155.3c-26.2,0-49.7,15.9-59.4,40.2L48,258.3c-27.6,7.1-48,32-48,61.7v112
	c0,8.8,7.2,16,16,16h48c0,53,43,96,96,96s96-43,96-96h128c0,53,43,96,96,96s96-43,96-96h48c8.8,0,16-7.2,16-16v-80
	C640,299,597,256,544,256z M160,496c-26.5,0-48-21.5-48-48s21.5-48,48-48s48,21.5,48,48S186.5,496,160,496z M232,256H116.9l38.4-96
	H232V256z M280,256v-96h89.2l76.8,96H280z M480,496c-26.5,0-48-21.5-48-48s21.5-48,48-48s48,21.5,48,48S506.5,496,480,496z"/>
</svg>
