<?xml version="1.0" encoding="utf-8"?>
<!-- Generator: Adobe Illustrator 24.0.2, SVG Export Plug-In . SVG Version: 6.00 Build 0)  -->
<svg version="1.1" id="Layer_1" xmlns="http://www.w3.org/2000/svg" xmlns:xlink="http://www.w3.org/1999/xlink" x="0px" y="0px"
	 viewBox="0 0 512 512" style="enable-background:new 0 0 512 512;" xml:space="preserve">
<path d="M440.7,180.5c0-47.3-38.3-85.6-85.6-85.6c0,0,0,0,0,0C354,42.3,311.1,0,258.3,0c-41.3,0-76.6,25.9-90.4,62.3
	c-3.8-0.7-7.7-1-11.7-1c-39.1,0-70.9,31.7-70.9,70.9c0,19,7.5,36.2,19.6,48.9c-12.3,16.6-19.6,37.2-19.6,59.4
	c0,55.2,44.7,99.9,99.9,99.9c7.7,0,15.1-0.9,22.3-2.5c9.4,23,50.8,95.3,4.7,174.1h76.2c-0.3,0.8-34.2-56.5,1.3-167.7
	c6.6,1.7,11,2.7,18.2,2.7c44.6,0,80.8-36.2,80.8-80.8c0-2.2-0.1-4.5-0.3-6.7C419,246.5,440.7,216,440.7,180.5z M243.4,370.9
	c0,0-11.3-13.6-21.1-37.6c8.9-3.5,17.1-8.3,24.5-14.1c0.9,1,6.6,6.8,7.6,7.8C255.1,340.4,250,361.3,243.4,370.9z M272.1,357.1
	l-3.7-20.4c3.8,2.1,7.7,3.9,11.8,5.4L272.1,357.1z"/>
</svg>
